<svg id="Component_1_1" data-name="Component 1 – 1" xmlns="http://www.w3.org/2000/svg" width="2023.065" height="1670.367" viewBox="0 0 2023.065 1670.367">
  <path id="Path_7" data-name="Path 7" d="M-246.374,392.142S-68.885,92.887,358.327,33.036s-74.3-340.531-97-340.531-842.041,548.978-819.339,582,311.638,117.638,311.638,117.638" transform="translate(558.475 587.59)" fill="#de7230"/>
  <path id="Path_6" data-name="Path 6" d="M.557,915.306s-118.588-345.3,254.614-432.5S1008.55,360.735,1022.5,53.8-16.883-106.639-156.4,238.66s24.415-952.187,24.415-952.187L1252.7-382.18s-132.539,938.236-143,959.163-233.687,261.59-233.687,261.59S698.13,911.818,453.979,946.7.557,915.306.557,915.306Z" transform="translate(388.616 713.527)" fill="#f5c85f"/>
  <path id="Path_1" data-name="Path 1" d="M0,927.374S48.817,747.682,688.6,573.051,796.558-3.234,796.558-3.234h854.108V927.374Z" transform="translate(372.399 618.603)" fill="#de7230"/>
</svg>
