<svg xmlns="http://www.w3.org/2000/svg" xmlns:xlink="http://www.w3.org/1999/xlink" width="1743" height="872" viewBox="0 0 1743 872">
  <defs>
    <filter id="Rectangle_3" x="0" y="0" width="341" height="420" filterUnits="userSpaceOnUse">
      <feOffset dx="10" dy="10" input="SourceAlpha"/>
      <feGaussianBlur stdDeviation="5" result="blur"/>
      <feFlood flood-opacity="0.161"/>
      <feComposite operator="in" in2="blur"/>
      <feComposite in="SourceGraphic"/>
    </filter>
    <filter id="Rectangle_4" x="407" y="0" width="341" height="420" filterUnits="userSpaceOnUse">
      <feOffset dx="10" dy="10" input="SourceAlpha"/>
      <feGaussianBlur stdDeviation="5" result="blur-2"/>
      <feFlood flood-opacity="0.161"/>
      <feComposite operator="in" in2="blur-2"/>
      <feComposite in="SourceGraphic"/>
    </filter>
    <filter id="Rectangle_5" x="814" y="0" width="341" height="420" filterUnits="userSpaceOnUse">
      <feOffset dx="10" dy="10" input="SourceAlpha"/>
      <feGaussianBlur stdDeviation="5" result="blur-3"/>
      <feFlood flood-opacity="0.161"/>
      <feComposite operator="in" in2="blur-3"/>
      <feComposite in="SourceGraphic"/>
    </filter>
    <filter id="Rectangle_6" x="1221" y="0" width="341" height="420" filterUnits="userSpaceOnUse">
      <feOffset dx="10" dy="10" input="SourceAlpha"/>
      <feGaussianBlur stdDeviation="5" result="blur-4"/>
      <feFlood flood-opacity="0.161"/>
      <feComposite operator="in" in2="blur-4"/>
      <feComposite in="SourceGraphic"/>
    </filter>
  </defs>
  <g id="Group_1" data-name="Group 1" transform="translate(-84 -249)">
    <g transform="matrix(1, 0, 0, 1, 84, 249)" filter="url(#Rectangle_3)">
      <g id="Rectangle_3-2" data-name="Rectangle 3" transform="translate(5 5)" fill="#fff" stroke="#707070" stroke-width="1">
        <rect width="311" height="390" rx="99" stroke="none"/>
        <rect x="0.5" y="0.5" width="310" height="389" rx="98.5" fill="none"/>
      </g>
    </g>
    <g transform="matrix(1, 0, 0, 1, 84, 249)" filter="url(#Rectangle_4)">
      <g id="Rectangle_4-2" data-name="Rectangle 4" transform="translate(412 5)" fill="#fff" stroke="#707070" stroke-width="1">
        <rect width="311" height="390" rx="99" stroke="none"/>
        <rect x="0.5" y="0.5" width="310" height="389" rx="98.5" fill="none"/>
      </g>
    </g>
    <g transform="matrix(1, 0, 0, 1, 84, 249)" filter="url(#Rectangle_5)">
      <g id="Rectangle_5-2" data-name="Rectangle 5" transform="translate(819 5)" fill="#fff" stroke="#707070" stroke-width="1">
        <rect width="311" height="390" rx="99" stroke="none"/>
        <rect x="0.5" y="0.5" width="310" height="389" rx="98.5" fill="none"/>
      </g>
    </g>
    <g transform="matrix(1, 0, 0, 1, 84, 249)" filter="url(#Rectangle_6)">
      <g id="Rectangle_6-2" data-name="Rectangle 6" transform="translate(1226 5)" fill="rgba(86,86,86,0.5)" stroke="#707070" stroke-width="1">
        <rect width="311" height="390" rx="99" stroke="none"/>
        <rect x="0.5" y="0.5" width="310" height="389" rx="98.5" fill="none"/>
      </g>
    </g>
    <g id="Rectangle_10" data-name="Rectangle 10" transform="translate(1826 1101)" fill="#fff" stroke="#707070" stroke-width="1">
      <rect width="1" height="20" stroke="none"/>
      <rect x="0.5" y="0.5" height="19" fill="none"/>
    </g>
  </g>
</svg>
